<svg xmlns="http://www.w3.org/2000/svg" xmlns:xlink="http://www.w3.org/1999/xlink" xmlns:inkscape="http://www.inkscape.org/namespaces/inkscape" version="1.1" width="315" height="101" viewBox="0 0 315 101">
<defs>
<path id="font_1_8" d="M.20799256 .19424439C.22999573 .19024658 .31199647 .17424011 .31199647 .102249149 .31199647 .051254274 .2769928 .011245728 .19898987 .011245728 .114990238 .011245728 .07899475 .06825256 .05999756 .15324402 .056991579 .1662445 .055999757 .17024231 .04598999 .17024231 .032989503 .17024231 .032989503 .16323853 .032989503 .14524842V.013244629C.032989503-.003753662 .032989503-.0107421879 .04399109-.0107421879 .04899597-.0107421879 .049987794-.009750366 .068984989 .009246826 .070999149 .011245728 .070999149 .013244629 .08898926 .03224182 .1329956-.009750366 .17799378-.0107421879 .19898987-.0107421879 .31399537-.0107421879 .3600006 .056243898 .3600006 .12825012 .3600006 .1812439 .32998658 .21124268 .31799317 .22323609 .2849884 .25523377 .24598694 .26324464 .20399475 .27124024 .147995 .28224183 .08099365 .2952423 .08099365 .35324098 .08099365 .38822938 .10699463 .42922975 .19299317 .42922975 .30299378 .42922975 .30799867 .3392334 .30999757 .3082428 .31098939 .2992401 .31999208 .2992401 .32199098 .2992401 .33499146 .2992401 .33499146 .304245 .33499146 .3232422V.4242401C.33499146 .4412384 .33499146 .4482422 .32398988 .4482422 .31900025 .4482422 .31698609 .4482422 .3039856 .43623353 .30099488 .43223573 .29100038 .42323304 .2869873 .42022706 .24899292 .4482422 .20799256 .4482422 .19299317 .4482422 .070999149 .4482422 .032989503 .38124085 .032989503 .3252411 .032989503 .29023744 .04899597 .26223756 .07598877 .24023438 .10798645 .21424866 .13598633 .2082367 .20799256 .19424439Z"/>
<path id="font_1_6" d="M.1769867 .4423828 .036987306 .43138124V.40037538C.101989749 .40037538 .11099243 .3943634 .11099243 .34532167V.076034549C.11099243 .0309906 .099990848 .0309906 .032989503 .0309906V0C.06498718 .0009918213 .11898804 .0029907227 .14299011 .0029907227 .17799378 .0029907227 .21299744 .0009918213 .24699402 0V.0309906C.18099976 .0309906 .1769867 .035995485 .1769867 .075042728V.4423828M.18099976 .6159363C.18099976 .64793398 .1559906 .6689453 .12799073 .6689453 .09700012 .6689453 .07499695 .64193728 .07499695 .6159363 .07499695 .5889435 .09700012 .5629425 .12799073 .5629425 .1559906 .5629425 .18099976 .5839386 .18099976 .6159363Z"/>
<path id="font_1_7" d="M.10998535 .34429933V.076034549C.10998535 .0309906 .09899902 .0309906 .03199768 .0309906V0C.066986087 .0009918213 .117996219 .0029907227 .14498902 .0029907227 .17098999 .0029907227 .22299195 .0009918213 .25698854 0V.0309906C.18998719 .0309906 .1789856 .0309906 .1789856 .076034549V.2602234C.1789856 .36431886 .25 .42037965 .31399537 .42037965 .3769989 .42037965 .3880005 .36631776 .3880005 .30926515V.076034549C.3880005 .0309906 .3769989 .0309906 .30999757 .0309906V0C.34498597 .0009918213 .3959961 .0029907227 .4229889 .0029907227 .44898988 .0029907227 .5009918 .0009918213 .5349884 0V.0309906C.48298646 .0309906 .45799256 .0309906 .45700074 .061019899V.25221253C.45700074 .3383026 .45700074 .36932374 .42599488 .405365 .4119873 .42237855 .3789978 .4423828 .32099916 .4423828 .24798584 .4423828 .20098877 .39935304 .17298889 .33729554V.4423828L.03199768 .43138124V.40037538C.101989749 .4003601 .10998535 .39335633 .10998535 .34429933Z"/>
<path id="font_1_1" d="M.33099366-.2400055C.33099366-.23701477 .33099366-.23500061 .31399537-.21800232 .18899536-.0920105 .15699768 .09700012 .15699768 .25 .15699768 .42399598 .19499207 .59799197 .31799317 .72299197 .33099366 .73498538 .33099366 .7369995 .33099366 .73999026 .33099366 .746994 .32699586 .75 .32099916 .75 .31098939 .75 .22099304 .6819916 .1619873 .5549927 .11099243 .44499208 .09899902 .33399964 .09899902 .25 .09899902 .17199707 .10998535 .050994874 .16499329-.06201172 .22499085-.18501282 .31098939-.25 .32099916-.25 .32699586-.25 .33099366-.24700928 .33099366-.2400055Z"/>
<path id="font_2_4" d="M.33399964 .30233766C.33999635 .32835389 .36299134 .42037965 .43299867 .42037965 .43798829 .42037965 .46199037 .42037965 .48298646 .40734864 .45498658 .402359 .43499757 .37734986 .43499757 .35334779 .43499757 .33735658 .44599916 .31835938 .47299195 .31835938 .49499513 .31835938 .5269928 .3363495 .5269928 .37635804 .5269928 .42837525 .46798707 .4423828 .43399049 .4423828 .37599183 .4423828 .34098817 .38935853 .32899476 .36634828 .3039856 .43237306 .25 .4423828 .22099304 .4423828 .116989139 .4423828 .05999756 .3133545 .05999756 .28834535 .05999756 .27833558 .069992069 .27833558 .07199097 .27833558 .07998657 .27833558 .08299255 .28033448 .084991458 .28933717 .11898804 .39535523 .18499756 .42037965 .21899414 .42037965 .23799134 .42037965 .272995 .4113617 .272995 .35334779 .272995 .32235719 .2559967 .25532533 .21899414 .11528015 .20298767 .053268434 .16799927 .011245728 .12399292 .011245728 .117996219 .011245728 .09498596 .011245728 .07398987 .024276734 .09899902 .029266358 .12098694 .05027771 .12098694 .07827759 .12098694 .105270389 .09899902 .11328125 .083999637 .11328125 .053985597 .11328125 .0289917 .08728027 .0289917 .055267335 .0289917 .009246826 .07899475-.0107421879 .12298584-.0107421879 .18899536-.0107421879 .22499085 .059280397 .22799683 .0652771 .23999024 .028274537 .27598573-.0107421879 .33599855-.0107421879 .43899537-.0107421879 .49598695 .118270877 .49598695 .14328003 .49598695 .1532898 .4869995 .1532898 .48399354 .1532898 .47499085 .1532898 .47299195 .14929199 .47099305 .14228821 .43798829 .03527832 .36999513 .011245728 .33799745 .011245728 .29899598 .011245728 .2829895 .043273927 .2829895 .07727051 .2829895 .09927368 .2889862 .121276859 .2999878 .16529846L.33399964 .30233766Z"/>
<path id="font_1_2" d="M.2889862 .25C.2889862 .32798768 .27799989 .44898988 .22299195 .56199648 .16299439 .68499758 .07699585 .75 .066986087 .75 .06098938 .75 .056991579 .74598696 .056991579 .73999026 .056991579 .7369995 .056991579 .73498538 .07598877 .71699526 .17399597 .6179962 .23098755 .45899964 .23098755 .25 .23098755 .07899475 .19400025-.09700012 .069992069-.2230072 .056991579-.23500061 .056991579-.23701477 .056991579-.2400055 .056991579-.2460022 .06098938-.25 .066986087-.25 .07699585-.25 .16699219-.18200684 .22599793-.055007936 .2769928 .054992677 .2889862 .16600037 .2889862 .25Z"/>
<path id="font_3_81" d="M.47099305 .21424866C.47099305 .34223939 .37098695 .4482422 .25 .4482422 .125 .4482422 .027999878 .3392334 .027999878 .21424866 .027999878 .085250858 .13198853-.0107421879 .24899292-.0107421879 .36999513-.0107421879 .47099305 .087249759 .47099305 .21424866M.3880005 .22224427C.3880005 .18624878 .3880005 .13224793 .3659973 .08824158 .34399415 .04324341 .2999878 .014251709 .25 .014251709 .20698548 .014251709 .16299439 .035247804 .13598633 .08125305 .11099243 .12524414 .11099243 .18624878 .11099243 .22224427 .11099243 .26124574 .11099243 .31523133 .1349945 .35923768 .1619873 .40522767 .20899964 .426239 .24899292 .426239 .29299928 .426239 .33599855 .40423585 .3619995 .36123658 .3880005 .3182373 .3880005 .26023866 .3880005 .22224427Z"/>
<path id="font_3_77" d="M.5349884 0V.0309906C.48298646 .0309906 .45799256 .0309906 .45700074 .061019899V.25221253C.45700074 .3383026 .45700074 .36932374 .42599488 .405365 .4119873 .42237855 .3789978 .4423828 .32099916 .4423828 .24798584 .4423828 .20098877 .39935304 .17298889 .33729554V.4423828L.03199768 .43066407V.3996582C.101989749 .3996582 .10998535 .39266969 .10998535 .34370423V.07595825C.10998535 .0309906 .09899902 .0309906 .03199768 .0309906V0L.14498902 .0029907227 .25698854 0V.0309906C.18998719 .0309906 .1789856 .0309906 .1789856 .07595825V.25978089C.1789856 .36431886 .25 .42037965 .31399537 .42037965 .3769989 .42037965 .3880005 .36631776 .3880005 .30926515V.076034549C.3880005 .0309906 .3769989 .0309906 .30999757 .0309906V0L.4229889 .0029907227 .5349884 0Z"/>
<path id="font_1_4" d="M.25498963-.25V-.21000672H.1579895V.70999148H.25498963V.75H.117996219V-.25H.25498963Z"/>
<path id="font_4_1" d="M.6589966 .23046875C.6759949 .23046875 .69400027 .23046875 .69400027 .25045777 .69400027 .27046205 .6759949 .27046205 .6589966 .27046205H.117996219C.100997928 .27046205 .08299255 .27046205 .08299255 .25045777 .08299255 .23046875 .100997928 .23046875 .117996219 .23046875H.6589966Z"/>
<path id="font_2_1" d="M.2649994 .37265016H.37799073C.34498597 .22489929 .33599855 .18196106 .33599855 .11508179 .33599855 .100097659 .33599855 .073150638 .34399415 .03919983 .35398866-.0047454836 .36499024-.0107421879 .37998963-.0107421879 .3999939-.0107421879 .42099 .007247925 .42099 .02722168 .42099 .033218385 .42099 .035202028 .4149933 .049179079 .38598634 .12106323 .38598634 .18595886 .38598634 .21391297 .38598634 .26683045 .3929901 .32073976 .4039917 .37265016H.5179901C.5309906 .37265016 .5669861 .37265016 .5669861 .406662 .5669861 .43066407 .54599 .43066407 .5269928 .43066407H.19198609C.16999817 .43066407 .13198853 .43066407 .08799744 .38365174 .052993776 .34469605 .026992798 .29878236 .026992798 .29379273 .026992798 .29278565 .026992798 .28379823 .038986207 .28379823 .04699707 .28379823 .04899597 .28779603 .054992677 .29577638 .10398865 .37265016 .1619873 .37265016 .18199158 .37265016H.23899842C.20698548 .25186158 .15299988 .13105774 .11099243 .04020691 .102996829 .025222779 .102996829 .023223877 .102996829 .016235352 .102996829-.002746582 .11898804-.0107421879 .13198853-.0107421879 .1619873-.0107421879 .16999817 .017242432 .18199158 .05418396 .19599915 .100097659 .19599915 .10209656 .20899964 .15202332L.2649994 .37265016Z"/>
<path id="font_2_3" d="M.43899537 .71199038C.44400025 .72499087 .44400025 .72898867 .44400025 .7299957 .44400025 .7409973 .43499757 .75 .42399598 .75 .4169922 .75 .4099884 .746994 .40699769 .7409973L.05999756-.21200562C.054992677-.2250061 .054992677-.2290039 .054992677-.23001099 .054992677-.24101258 .06399536-.25 .07499695-.25 .08799744-.25 .09098816-.24301148 .09700012-.22601319L.43899537 .71199038Z"/>
<path id="font_1_3" d="M.1269989 .07699585 .23298645 .18003845C.3889923 .31811524 .44898988 .3721466 .44898988 .47216798 .44898988 .5860901 .35899354 .6660156 .23699951 .6660156 .12399292 .6660156 .049987794 .57411196 .049987794 .48516847 .049987794 .4291687 .099990848 .4291687 .102996829 .4291687 .11999512 .4291687 .15499878 .44117738 .15499878 .48217774 .15499878 .5081787 .13699341 .5341797 .101989749 .5341797 .09399414 .5341797 .09199524 .5341797 .08898926 .5331726 .11199951 .59806826 .1659851 .63500979 .22399903 .63500979 .31498719 .63500979 .35798646 .5541382 .35798646 .47216798 .35798646 .39215089 .30799867 .31311036 .25299073 .25108338L.06098938 .036987306C.049987794 .025985718 .049987794 .023986817 .049987794 0H.42099L.44898988 .17404175H.42399598C.4189911 .14402771 .4119873 .1000061 .4019928 .084991458 .394989 .07699585 .32899476 .07699585 .30699159 .07699585H.1269989Z"/>
<path id="font_2_2" d="M.20298767 .0009918213C.20298767 .066986087 .17799378 .10598755 .13899231 .10598755 .10598755 .10598755 .085998538 .08099365 .085998538 .052993776 .085998538 .025985718 .10598755 0 .13899231 0 .15098572 0 .1639862 .0039978029 .17399597 .0129852299 .1769867 .01499939 .17799378 .015991211 .1789856 .015991211 .17999268 .015991211 .18099976 .01499939 .18099976 .0009918213 .18099976-.07316589 .1459961-.13328552 .11299133-.16635132 .101989749-.17736817 .101989749-.17936707 .101989749-.18237305 .101989749-.18936157 .10699463-.19335938 .11199951-.19335938 .12298584-.19335938 .20298767-.116256717 .20298767 .0009918213Z"/>
<path id="font_1_5" d="M.15899658 .75H.021987915V.70999148H.11898804V-.21000672H.021987915V-.25H.15899658V.75Z"/>
<path id="font_3_28" d="M.48298646 .08912659V.14511109H.45799256V.08912659C.45799256 .03112793 .43299867 .025131226 .42199708 .025131226 .3889923 .025131226 .3849945 .070129398 .3849945 .07511902V.27508546C.3849945 .31707765 .3849945 .3560791 .34899903 .39312745 .30999757 .43223573 .2599945 .4482422 .21199036 .4482422 .12998963 .4482422 .06098938 .40115357 .06098938 .335083 .06098938 .30508424 .08099365 .28808595 .10699463 .28808595 .1349945 .28808595 .15299988 .30807496 .15299988 .33407594 .15299988 .3460846 .147995 .37908937 .101989749 .38008119 .1289978 .41519166 .17799378 .426239 .20999146 .426239 .25898744 .426239 .31599427 .38710023 .31599427 .29808045V.26107789C.2649994 .25808717 .19499207 .25508119 .13198853 .22509766 .056991579 .19110108 .03199768 .13911438 .03199768 .09512329 .03199768 .014251709 .1289978-.0107421879 .19198609-.0107421879 .2579956-.0107421879 .3039856 .029251099 .32299806 .07624817 .32699586 .036132814 .35398866-.005859375 .40098573-.005859375 .42199708-.005859375 .48298646 .008132935 .48298646 .08912659M.31599427 .14013672C.31599427 .04525757 .24398804 .011245728 .19898987 .011245728 .1499939 .011245728 .10899353 .04624939 .10899353 .09625244 .10899353 .15124512 .15098572 .23425293 .31599427 .24024964V.14013672Z"/>
<path id="font_3_96" d="M.3639984 .38137818C.3639984 .41337586 .33299256 .4423828 .2899933 .4423828 .21699524 .4423828 .18099976 .37538148 .16699219 .3323822V.4423828L.027999878 .43066407V.3996582C.09799194 .3996582 .10598755 .39266969 .10598755 .34370423V.07595825C.10598755 .0309906 .09498596 .0309906 .027999878 .0309906V0L.14199829 .0029907227C.18199158 .0029907227 .22898865 .0029907227 .2689972 0V.0309906H.24798584C.17399597 .0309906 .17199707 .04197693 .17199707 .07795715V.23181153C.17199707 .33137513 .21398926 .42037965 .2899933 .42037965 .29699708 .42037965 .29899598 .42037965 .30099488 .41937257 .2979889 .41838075 .27799989 .40637208 .27799989 .3803711 .27799989 .35237123 .29899598 .33737184 .32099916 .33737184 .33898927 .33737184 .3639984 .3493805 .3639984 .38137818Z"/>
<path id="font_3_50" d="M.4149933 .11933899C.4149933 .12934876 .40699769 .13134766 .4019928 .13134766 .3929901 .13134766 .3909912 .12535095 .3889923 .11734009 .35398866 .014251709 .2639923 .014251709 .2539978 .014251709 .20399475 .014251709 .1639862 .044281007 .14099121 .08131409 .11099243 .12934876 .11099243 .19540406 .11099243 .23144531H.3899994C.4119873 .23144531 .4149933 .23144531 .4149933 .2524414 .4149933 .35131837 .36099244 .4482422 .23599243 .4482422 .11999512 .4482422 .027999878 .34532167 .027999878 .22042847 .027999878 .08631897 .1329956-.0107421879 .24798584-.0107421879 .36999513-.0107421879 .4149933 .10032654 .4149933 .11933899M.34899903 .2524414H.11199951C.117996219 .40126039 .20199585 .426239 .23599243 .426239 .33898927 .426239 .34899903 .2913971 .34899903 .2524414Z"/>
<path id="font_3_98" d="M.3600006 .12823487C.3600006 .18122864 .32998658 .21122742 .31799317 .22323609 .2849884 .25523377 .24598694 .26322938 .20399475 .27124024 .147995 .28224183 .08099365 .29522706 .08099365 .35324098 .08099365 .38822938 .10699463 .42922975 .19299317 .42922975 .30299378 .42922975 .30799867 .3392334 .30999757 .30822755 .31098939 .2992401 .32199098 .2992401 .32199098 .2992401 .33499146 .2992401 .33499146 .30422975 .33499146 .32322694V.4242401C.33499146 .4412384 .33499146 .4482422 .32398988 .4482422 .31900025 .4482422 .31698609 .4482422 .3039856 .43623353 .30099488 .43223573 .29100038 .42323304 .2869873 .42022706 .24899292 .4482422 .20799256 .4482422 .19299317 .4482422 .070999149 .4482422 .032989503 .38124085 .032989503 .3252411 .032989503 .29023744 .04899597 .26223756 .07598877 .24023438 .10798645 .2142334 .13598633 .2082367 .20799256 .19422913 .22999573 .19021607 .31199647 .17422486 .31199647 .10221863 .31199647 .051223756 .2769928 .011245728 .19898987 .011245728 .114990238 .011245728 .07899475 .068222049 .05999756 .1532135 .056991579 .16621399 .055999757 .17021179 .04598999 .17021179 .032989503 .17021179 .032989503 .16322327 .032989503 .1452179V.013214111C.032989503-.003753662 .032989503-.0107421879 .04399109-.0107421879 .04899597-.0107421879 .049987794-.009750366 .068984989 .009246826 .070999149 .011245728 .070999149 .013214111 .08898926 .032226564 .1329956-.009750366 .17799378-.0107421879 .19898987-.0107421879 .31399537-.0107421879 .3600006 .05621338 .3600006 .1282196V.12823487Z"/>
<path id="font_3_105" d="M.33198548 .12385559V.18066406H.30699159V.12585449C.30699159 .052108766 .2769928 .014251709 .23999024 .014251709 .17298889 .014251709 .17298889 .10491943 .17298889 .12187195V.3996582H.31599427V.43066407H.17298889V.6142578H.147995C.14698792 .5324249 .116989139 .42565919 .018997193 .42166139V.3996582H.10398865V.12408447C.10398865 .0012512207 .19699097-.0107421879 .23298645-.0107421879 .3039856-.0107421879 .33198548 .060180665 .33198548 .12408447V.12385559Z"/>
<path id="font_3_66" d="M.24699402 0V.0309906C.18099976 .0309906 .1769867 .035995485 .1769867 .075042728V.4423828L.036987306 .43066407V.3996582C.101989749 .3996582 .11099243 .3936615 .11099243 .3447113V.07595825C.11099243 .0309906 .099990848 .0309906 .032989503 .0309906V0L.14299011 .0029907227C.17799378 .0029907227 .21299744 .0009918213 .24699402 0M.19198609 .603775C.19198609 .6307678 .16899109 .6567688 .13899231 .6567688 .10499573 .6567688 .084991458 .6287689 .084991458 .603775 .084991458 .57676699 .10798645 .55078127 .13798523 .55078127 .17199707 .55078127 .19198609 .5787811 .19198609 .603775Z"/>
<path id="font_3_43" d="M.4149933 .119140628C.4149933 .12911988 .40499879 .12911988 .4019928 .12911988 .3929901 .12911988 .3909912 .12512207 .3889923 .119140628 .3600006 .026229859 .29499818 .014251709 .2579956 .014251709 .20498657 .014251709 .116989139 .0572052 .116989139 .21801758 .116989139 .38093568 .19898987 .42323304 .2519989 .42323304 .26098634 .42323304 .32398988 .42222596 .35899354 .38594056 .31799317 .38293458 .31199647 .3529358 .31199647 .3399353 .31199647 .31393434 .32998658 .2939453 .35798646 .2939453 .38398744 .2939453 .4039917 .3109436 .4039917 .34094239 .4039917 .40911866 .32798768 .4482422 .25099183 .4482422 .12599182 .4482422 .033996583 .3399353 .033996583 .21601868 .033996583 .08816528 .1329956-.0107421879 .24899292-.0107421879 .3829956-.0107421879 .4149933 .10914612 .4149933 .119140628Z"/>
<path id="font_3_47" d="M.5269928 0V.0309906C.45700074 .0309906 .44898988 .038009645 .44898988 .0871582V.69433596L.30499269 .6826172V.6516113C.375 .6516113 .3829956 .64463809 .3829956 .59580996V.38035584C.35398866 .41636659 .31098939 .4423828 .25698854 .4423828 .13899231 .4423828 .033996583 .3443451 .033996583 .21531677 .033996583 .088272098 .13198853-.0107421879 .24598694-.0107421879 .30999757-.0107421879 .35499574 .023254395 .37998963 .055267335V-.0107421879L.5269928 0M.37998963 .117996219C.37998963 .099990848 .37998963 .09799194 .36898805 .08099365 .33898927 .033218385 .2939911 .011245728 .25099183 .011245728 .20599365 .011245728 .16999817 .037216188 .1459961 .075164798 .11999512 .1161499 .116989139 .17320252 .116989139 .21421814 .116989139 .25125123 .11898804 .31129457 .147995 .35632325 .16899109 .38734437 .20698548 .42037965 .26098634 .42037965 .29599 .42037965 .33799745 .405365 .36898805 .3603363 .37998963 .34332276 .37998963 .34132386 .37998963 .32330323V.117996219Z"/>
<path id="font_3_75" d="M.8129883 0V.0309906C.7609863 .0309906 .73599246 .0309906 .7350006 .061019899V.25221253C.7350006 .3383026 .7350006 .36932374 .70399478 .405365 .6899872 .42237855 .6569977 .4423828 .598999 .4423828 .5149994 .4423828 .47099305 .38233949 .45399476 .34429933 .43998719 .43138124 .3659973 .4423828 .32099916 .4423828 .24798584 .4423828 .20098877 .39935304 .17298889 .33729554V.4423828L.03199768 .43066407V.3996582C.101989749 .3996582 .10998535 .39266969 .10998535 .34370423V.07595825C.10998535 .0309906 .09899902 .0309906 .03199768 .0309906V0L.14498902 .0029907227 .25698854 0V.0309906C.18998719 .0309906 .1789856 .0309906 .1789856 .07595825V.25978089C.1789856 .36431886 .25 .42037965 .31399537 .42037965 .3769989 .42037965 .3880005 .36631776 .3880005 .30926515V.076034549C.3880005 .0309906 .3769989 .0309906 .30999757 .0309906V0L.4229889 .0029907227 .5349884 0V.0309906C.46798707 .0309906 .45700074 .0309906 .45700074 .076034549V.2602234C.45700074 .36431886 .5279999 .42037965 .59199526 .42037965 .6549988 .42037965 .66600039 .36631776 .66600039 .30926515V.076034549C.66600039 .0309906 .6549988 .0309906 .58799746 .0309906V0L.70098879 .0029907227 .8129883 0Z"/>
</defs>
<path transform="matrix(1.00005,0,0,-1.00002,115.0514,43.91858)" stroke-width=".79701" stroke-linecap="butt" stroke-miterlimit="10" stroke-linejoin="miter" fill="none" stroke="#000000" d="M-112.67987 0H197.72029"/>
<path transform="matrix(-1.00005,-0,0,1.00002,2.3658982,43.91858)" stroke-width=".6376" stroke-linecap="round" stroke-linejoin="round" fill="none" stroke="#000000" d="M-1.55415 2.0722C-1.42464 1.29512 0 .1295 .38852 0 0-.1295-1.42464-1.29512-1.55415-2.0722"/>
<path transform="matrix(1.00005,0,0,-1.00002,312.78157,43.91858)" stroke-width=".6376" stroke-linecap="round" stroke-linejoin="round" fill="none" stroke="#000000" d="M-1.55415 2.0722C-1.42464 1.29512 0 .1295 .38852 0 0-.1295-1.42464-1.29512-1.55415-2.0722"/>
<path transform="matrix(1.00005,0,0,-1.00002,115.0514,43.91858)" stroke-width=".79701" stroke-linecap="butt" stroke-miterlimit="10" stroke-linejoin="miter" fill="none" stroke="#000000" d="M0-41.81284V41.81284"/>
<path transform="matrix(0,1.00002,1.00005,0,115.0514,85.732257)" stroke-width=".6376" stroke-linecap="round" stroke-linejoin="round" fill="none" stroke="#000000" d="M-1.55415 2.0722C-1.42464 1.29512 0 .1295 .38852 0 0-.1295-1.42464-1.29512-1.55415-2.0722"/>
<path transform="matrix(0,-1.00002,-1.00005,-0,115.0514,2.1049004)" stroke-width=".6376" stroke-linecap="round" stroke-linejoin="round" fill="none" stroke="#000000" d="M-1.55415 2.0722C-1.42464 1.29512 0 .1295 .38852 0 0-.1295-1.42464-1.29512-1.55415-2.0722"/>
<path transform="matrix(1.00005,0,0,-1.00002,115.0514,43.91858)" stroke-width=".79701" stroke-linecap="butt" stroke-dasharray="2.98883,2.98883" stroke-miterlimit="10" stroke-linejoin="miter" fill="none" stroke="#0000ff" d="M-110.01447 19.03561-97.79639 8.60359-85.04042-4.00009-72.28444-15.80795-59.52846-24.46779-46.77248-28.2564-34.0165-26.41898-21.26053-19.32231-8.50455-8.37695 4.2514 4.23453 17.00737 16.00389 29.76335 24.58717 42.51933 28.275 55.27531 26.33246 68.0313 19.14671 80.78728 8.14944 93.54326-4.46983 106.29922-16.20027 119.05519-24.70439 131.81118-28.2897 144.56716-26.24336 157.32314-18.97153 170.07912-7.9219 182.8351 4.70427 195.0696 15.91615"/>
<path transform="matrix(-.760488,-.649313,-.6493324,.76046529,5.031433,24.882597)" stroke-width=".6376" stroke-linecap="round" stroke-linejoin="round" fill="none" stroke="#0000ff" d="M-1.55415 2.0722C-1.42464 1.29512 0 .1295 .38852 0 0-.1295-1.42464-1.29512-1.55415-2.0722"/>
<path transform="matrix(.7372468,-.67559358,-.67561379,-.73722478,310.13075,28.002121)" stroke-width=".6376" stroke-linecap="round" stroke-linejoin="round" fill="none" stroke="#0000ff" d="M-1.55415 2.0722C-1.42464 1.29512 0 .1295 .38852 0 0-.1295-1.42464-1.29512-1.55415-2.0722"/>
<path transform="matrix(1.00005,0,0,-1.00002,115.0514,43.91858)" stroke-width="1.19553" stroke-linecap="butt" stroke-miterlimit="10" stroke-linejoin="miter" fill="none" stroke="#000000" d="M-44.52718-28.34636C-44.52718-28.34636-41.84645-28.23679-40.81686-28.10284-39.78728-27.9689-38.13614-27.64662-37.10655-27.38095-36.07697-27.11528-34.42583-26.58092-33.39624-26.188-32.36667-25.79509-30.71552-25.0624-29.68593-24.5491-28.65634-24.03581-27.00522-23.11343-25.97563-22.48851-24.94604-21.86359-23.29489-20.77095-22.2653-20.04509-21.23573-19.31923-19.58458-18.07141-18.555-17.25696-17.5254-16.44252-15.87428-15.0641-14.8447-14.17513-13.81511-13.28615-12.16396-11.79828-11.13438-10.84976-10.1048-9.90126-8.45364-8.33044-7.42406-7.33885-6.39447-6.34726-4.74335-4.72076-3.71376-3.70294-2.68417-2.6851-1.03302-1.02954-.00345-.00302 1.02612 1.0235 2.67726 2.67783 3.70685 3.69559 4.73642 4.71336 6.38756 6.34065 7.41714 7.33237 8.44673 8.32408 10.09787 9.8947 11.12746 10.84328 12.15704 11.79185 13.80818 13.27989 14.83777 14.16905 15.86734 15.05823 17.5185 16.43713 18.54808 17.25175 19.57767 18.06639 21.2288 19.31429 22.25839 20.04033 23.28798 20.76639 24.93912 21.85945 25.96869 22.4846 26.99828 23.10976 28.64943 24.03261 29.67902 24.54608 30.7086 25.05956 32.35974 25.79239 33.38933 26.1854 34.41891 26.57841 36.07005 27.11285 37.09962 27.37877 38.12921 27.64468 39.78036 27.96773 40.80995 28.10197 41.83954 28.23622 44.52025 28.34636 44.52025 28.34636"/>
<path transform="matrix(1.00005,0,0,-1.00002,115.0514,43.91858)" stroke-width=".3985" stroke-linecap="butt" stroke-miterlimit="10" stroke-linejoin="miter" fill="none" stroke="#0000ff" d="M172.9157-22.67752"/>
<use data-text="s" xlink:href="#font_1_8" transform="matrix(9.963098,0,0,-9.962799,275.1374,69.08708)" fill="#0000ff"/>
<use data-text="i" xlink:href="#font_1_6" transform="matrix(9.963098,0,0,-9.962799,279.06288,69.08708)" fill="#0000ff"/>
<use data-text="n" xlink:href="#font_1_7" transform="matrix(9.963098,0,0,-9.962799,281.8326,69.08708)" fill="#0000ff"/>
<use data-text="(" xlink:href="#font_1_1" transform="matrix(9.963098,0,0,-9.962799,287.37208,69.08708)" fill="#0000ff"/>
<use data-text="x" xlink:href="#font_2_4" transform="matrix(9.963098,0,0,-9.962799,291.2442,69.08708)" fill="#0000ff"/>
<use data-text=")" xlink:href="#font_1_2" transform="matrix(9.963098,0,0,-9.962799,296.93849,69.08708)" fill="#0000ff"/>
<path transform="matrix(1.00005,0,0,-1.00002,115.0514,43.91858)" stroke-width=".3985" stroke-linecap="butt" stroke-miterlimit="10" stroke-linejoin="miter" fill="none" stroke="#000000" d="M56.69362 34.01608"/>
<use data-text="s" xlink:href="#font_1_8" transform="matrix(9.963098,0,0,-9.962799,125.47492,12.392952)"/>
<use data-text="i" xlink:href="#font_1_6" transform="matrix(9.963098,0,0,-9.962799,129.40039,12.392952)"/>
<use data-text="n" xlink:href="#font_1_7" transform="matrix(9.963098,0,0,-9.962799,132.17014,12.392952)"/>
<use data-text="(" xlink:href="#font_1_1" transform="matrix(9.963098,0,0,-9.962799,137.7096,12.392952)"/>
<use data-text="x" xlink:href="#font_2_4" transform="matrix(9.963098,0,0,-9.962799,141.58173,12.392952)"/>
<use data-text=")" xlink:href="#font_1_2" transform="matrix(9.963098,0,0,-9.962799,147.276,12.392952)"/>
<use data-text="o" xlink:href="#font_3_81" transform="matrix(9.963098,0,0,-9.962799,154.46839,12.392952)"/>
<use data-text="n" xlink:href="#font_3_77" transform="matrix(9.963098,0,0,-9.962799,159.44992,12.392952)"/>
<use data-text="[" xlink:href="#font_1_4" transform="matrix(9.963098,0,0,-9.962799,168.30707,12.392952)"/>
<use data-text="&#x2212;" xlink:href="#font_4_1" transform="matrix(9.963098,0,0,-9.962799,171.07419,12.392952)"/>
<use data-text="&#x03c0;" xlink:href="#font_2_1" transform="matrix(9.963098,0,0,-9.962799,178.82358,12.392952)"/>
<use data-text="/" xlink:href="#font_2_3" transform="matrix(9.963098,0,0,-9.962799,184.85126,12.392952)"/>
<use data-text="2" xlink:href="#font_1_3" transform="matrix(9.963098,0,0,-9.962799,189.84214,12.392952)"/>
<use data-text="," xlink:href="#font_2_2" transform="matrix(9.963098,0,0,-9.962799,194.8234,12.392952)"/>
<use data-text="&#x03c0;" xlink:href="#font_2_1" transform="matrix(9.963098,0,0,-9.962799,199.24701,12.392952)"/>
<use data-text="/" xlink:href="#font_2_3" transform="matrix(9.963098,0,0,-9.962799,205.28464,12.392952)"/>
<use data-text="2" xlink:href="#font_1_3" transform="matrix(9.963098,0,0,-9.962799,210.27017,12.392952)"/>
<use data-text="]" xlink:href="#font_1_5" transform="matrix(9.963098,0,0,-9.962799,215.25171,12.392952)"/>
<path transform="matrix(1.00005,0,0,-1.00002,115.0514,43.91858)" stroke-width=".3985" stroke-linecap="butt" stroke-miterlimit="10" stroke-linejoin="miter" fill="none" stroke="#000000" d="M14.17339 28.3468V19.84267"/>
<path transform="matrix(1.00005,0,0,-1.00002,115.0514,43.91858)" stroke-width=".3985" stroke-linecap="butt" stroke-miterlimit="10" stroke-linejoin="miter" fill="none" stroke="#000000" d="M42.5202-51.02432"/>
<use data-text="s" xlink:href="#font_1_8" transform="matrix(9.963098,0,0,-9.962799,93.75833,97.43465)"/>
<use data-text="i" xlink:href="#font_1_6" transform="matrix(9.963098,0,0,-9.962799,97.68379,97.43465)"/>
<use data-text="n" xlink:href="#font_1_7" transform="matrix(9.963098,0,0,-9.962799,100.45354,97.43465)"/>
<use data-text="(" xlink:href="#font_1_1" transform="matrix(9.963098,0,0,-9.962799,105.99301,97.43465)"/>
<use data-text="x" xlink:href="#font_2_4" transform="matrix(9.963098,0,0,-9.962799,109.86514,97.43465)"/>
<use data-text=")" xlink:href="#font_1_2" transform="matrix(9.963098,0,0,-9.962799,115.55942,97.43465)"/>
<use data-text="o" xlink:href="#font_3_81" transform="matrix(9.963098,0,0,-9.962799,122.751789,97.43465)"/>
<use data-text="n" xlink:href="#font_3_77" transform="matrix(9.963098,0,0,-9.962799,127.73332,97.43465)"/>
<use data-text="a" xlink:href="#font_3_28" transform="matrix(9.963098,0,0,-9.962799,136.58055,97.43465)"/>
<use data-text="r" xlink:href="#font_3_96" transform="matrix(9.963098,0,0,-9.962799,144.8798,97.43465)"/>
<use data-text="e" xlink:href="#font_3_50" transform="matrix(9.963098,0,0,-9.962799,148.7953,97.43465)"/>
<use data-text="s" xlink:href="#font_3_98" transform="matrix(9.963098,0,0,-9.962799,153.21894,97.43465)"/>
<use data-text="t" xlink:href="#font_3_105" transform="matrix(9.963098,0,0,-9.962799,157.1444,97.43465)"/>
<use data-text="r" xlink:href="#font_3_96" transform="matrix(9.963098,0,0,-9.962799,161.02004,97.43465)"/>
<use data-text="i" xlink:href="#font_3_66" transform="matrix(9.963098,0,0,-9.962799,164.92557,97.43465)"/>
<use data-text="c" xlink:href="#font_3_43" transform="matrix(9.963098,0,0,-9.962799,167.69532,97.43465)"/>
<use data-text="t" xlink:href="#font_3_105" transform="matrix(9.963098,0,0,-9.962799,172.11894,97.43465)"/>
<use data-text="e" xlink:href="#font_3_50" transform="matrix(9.963098,0,0,-9.962799,175.99459,97.43465)"/>
<use data-text="d" xlink:href="#font_3_47" transform="matrix(9.963098,0,0,-9.962799,180.41822,97.43465)"/>
<use data-text="d" xlink:href="#font_3_47" transform="matrix(9.963098,0,0,-9.962799,189.27538,97.43465)"/>
<use data-text="o" xlink:href="#font_3_81" transform="matrix(9.963098,0,0,-9.962799,194.81487,97.43465)"/>
<use data-text="m" xlink:href="#font_3_75" transform="matrix(9.963098,0,0,-9.962799,199.79644,97.43465)"/>
<use data-text="a" xlink:href="#font_3_28" transform="matrix(9.963098,0,0,-9.962799,208.09569,97.43465)"/>
<use data-text="i" xlink:href="#font_3_66" transform="matrix(9.963098,0,0,-9.962799,213.07723,97.43465)"/>
<use data-text="n" xlink:href="#font_3_77" transform="matrix(9.963098,0,0,-9.962799,215.84697,97.43465)"/>
</svg>
