<svg xmlns="http://www.w3.org/2000/svg" xmlns:xlink="http://www.w3.org/1999/xlink" xmlns:inkscape="http://www.inkscape.org/namespaces/inkscape" version="1.1" width="287" height="230" viewBox="0 0 287 230">
<defs>
<path id="font_1_5" d="M.48599244 .38136292C.48999024 .39537049 .48999024 .39736939 .48999024 .40437318 .48999024 .42237855 .47599793 .43138124 .46099855 .43138124 .45098878 .43138124 .43499757 .42536927 .42599488 .41036988 .42399598 .405365 .41600038 .37435914 .4119873 .35635377 .40499879 .33035279 .397995 .30334474 .3919983 .27633668L.34700013 .09628296C.34298707 .08126831 .2999878 .011245728 .23399353 .011245728 .18299866 .011245728 .17199707 .055267335 .17199707 .0922699 .17199707 .1382904 .18899536 .20030213 .22299195 .28833009 .23899842 .3293457 .24299622 .3403473 .24299622 .36035157 .24299622 .405365 .21099854 .4423828 .16099549 .4423828 .06599426 .4423828 .0289917 .29733277 .0289917 .28833009 .0289917 .27833558 .038986207 .27833558 .040985109 .27833558 .050994874 .27833558 .051986696 .28033448 .056991579 .29634095 .083999637 .3903656 .12399292 .42037965 .1579895 .42037965 .1659851 .42037965 .18299866 .42037965 .18299866 .3883667 .18299866 .36335755 .17298889 .3373413 .1659851 .31834413 .12599182 .21231079 .10798645 .1552887 .10798645 .10827637 .10798645 .019256592 .17098999-.0107421879 .22999573-.0107421879 .2689972-.0107421879 .30299378 .0062561037 .33099366 .03425598 .31799317-.017745972 .30599977-.06674194 .2659912-.11973572 .23999024-.15385437 .20199585-.18309021 .1559906-.18309021 .14199829-.18309021 .09700012-.18005371 .07998657-.14074707 .09599304-.14074707 .10899353-.14074707 .12298584-.1287384 .1329956-.11973572 .14299011-.10673523 .14299011-.08773804 .14299011-.056747438 .115997318-.052734376 .10598755-.052734376 .08299255-.052734376 .049987794-.068740848 .049987794-.11773682 .049987794-.16796875 .09399414-.20507813 .1559906-.20507813 .25898744-.20507813 .3619995-.11373901 .3899994-.00074768069L.48599244 .38136292Z"/>
<path id="font_1_4" d="M.33399964 .30233766C.33999635 .32835389 .36299134 .42037965 .43299867 .42037965 .43798829 .42037965 .46199037 .42037965 .48298646 .40734864 .45498658 .402359 .43499757 .37734986 .43499757 .35334779 .43499757 .33735658 .44599916 .31835938 .47299195 .31835938 .49499513 .31835938 .5269928 .3363495 .5269928 .37635804 .5269928 .42837525 .46798707 .4423828 .43399049 .4423828 .37599183 .4423828 .34098817 .38935853 .32899476 .36634828 .3039856 .43237306 .25 .4423828 .22099304 .4423828 .116989139 .4423828 .05999756 .3133545 .05999756 .28834535 .05999756 .27833558 .069992069 .27833558 .07199097 .27833558 .07998657 .27833558 .08299255 .28033448 .084991458 .28933717 .11898804 .39535523 .18499756 .42037965 .21899414 .42037965 .23799134 .42037965 .272995 .4113617 .272995 .35334779 .272995 .32235719 .2559967 .25532533 .21899414 .11528015 .20298767 .053268434 .16799927 .011245728 .12399292 .011245728 .117996219 .011245728 .09498596 .011245728 .07398987 .024276734 .09899902 .029266358 .12098694 .05027771 .12098694 .07827759 .12098694 .105270389 .09899902 .11328125 .083999637 .11328125 .053985597 .11328125 .0289917 .08728027 .0289917 .055267335 .0289917 .009246826 .07899475-.0107421879 .12298584-.0107421879 .18899536-.0107421879 .22499085 .059280397 .22799683 .0652771 .23999024 .028274537 .27598573-.0107421879 .33599855-.0107421879 .43899537-.0107421879 .49598695 .118270877 .49598695 .14328003 .49598695 .1532898 .4869995 .1532898 .48399354 .1532898 .47499085 .1532898 .47299195 .14929199 .47099305 .14228821 .43798829 .03527832 .36999513 .011245728 .33799745 .011245728 .29899598 .011245728 .2829895 .043273927 .2829895 .07727051 .2829895 .09927368 .2889862 .121276859 .2999878 .16529846L.33399964 .30233766Z"/>
<path id="font_1_1" d="M.36698915 .3996582H.45298768C.47299195 .3996582 .48298646 .3996582 .48298646 .41966249 .48298646 .43066407 .47299195 .43066407 .45599366 .43066407H.37298585L.3939972 .5449524C.397995 .5660095 .4119873 .6370239 .41799928 .6490326 .4269867 .66804507 .44400025 .68307498 .46499635 .68307498 .46899415 .68307498 .49499513 .68307498 .5139923 .66503909 .46998597 .661026 .45999146 .6260376 .45999146 .6110382 .45999146 .58802798 .47799684 .57603457 .49699403 .57603457 .522995 .57603457 .5519867 .5980377 .5519867 .6360321 .5519867 .6820679 .5059967 .7050781 .46499635 .7050781 .43099977 .7050781 .36799623 .68707278 .33799745 .58802798 .33198548 .56700137 .32899476 .5569763 .30499269 .43066407H.23599243C.21699524 .43066407 .20599365 .43066407 .20599365 .4116516 .20599365 .3996582 .21499634 .3996582 .23399353 .3996582H.2999878L.22499085 .0048828127C.20698548-.09207153 .18998719-.18309021 .13798523-.18309021 .13398743-.18309021 .10899353-.18309021 .08999634-.16506958 .13598633-.1620636 .14498902-.12606812 .14498902-.111068729 .14498902-.08807373 .1269989-.07606506 .10798645-.07606506 .08198547-.07606506 .052993776-.09806824 .052993776-.13606262 .052993776-.18109131 .09700012-.20507813 .13798523-.20507813 .19299317-.20507813 .23298645-.14607239 .25099183-.108062747 .2829895-.04508972 .30599977 .07583618 .30699159 .082839969L.36698915 .3996582Z"/>
<path id="font_2_1" d="M.33099366-.2400055C.33099366-.23701477 .33099366-.23500061 .31399537-.21800232 .18899536-.0920105 .15699768 .09700012 .15699768 .25 .15699768 .42399598 .19499207 .59799197 .31799317 .72299197 .33099366 .73498538 .33099366 .7369995 .33099366 .73999026 .33099366 .746994 .32699586 .75 .32099916 .75 .31098939 .75 .22099304 .6819916 .1619873 .5549927 .11099243 .44499208 .09899902 .33399964 .09899902 .25 .09899902 .17199707 .10998535 .050994874 .16499329-.06201172 .22499085-.18501282 .31098939-.25 .32099916-.25 .32699586-.25 .33099366-.24700928 .33099366-.2400055Z"/>
<path id="font_2_2" d="M.2889862 .25C.2889862 .32798768 .27799989 .44898988 .22299195 .56199648 .16299439 .68499758 .07699585 .75 .066986087 .75 .06098938 .75 .056991579 .74598696 .056991579 .73999026 .056991579 .7369995 .056991579 .73498538 .07598877 .71699526 .17399597 .6179962 .23098755 .45899964 .23098755 .25 .23098755 .07899475 .19400025-.09700012 .069992069-.2230072 .056991579-.23500061 .056991579-.23701477 .056991579-.2400055 .056991579-.2460022 .06098938-.25 .066986087-.25 .07699585-.25 .16699219-.18200684 .22599793-.055007936 .2769928 .054992677 .2889862 .16600037 .2889862 .25Z"/>
<path id="font_1_2" d="M.47099305 .3773346C.47200013 .3833313 .47399903 .38833619 .47399903 .39535523 .47399903 .41236878 .46199037 .42237855 .44499208 .42237855 .43499757 .42237855 .4079895 .41537477 .4039917 .3793335 .38598634 .41636659 .35099793 .4423828 .31098939 .4423828 .19699097 .4423828 .07299805 .30226136 .07299805 .15812683 .07299805 .059020997 .13398743 0 .20599365 0 .2649994 0 .31199647 .04701233 .32199098 .058029176L.32299806 .057022096C.3019867-.031982423 .2899933-.07295227 .2899933-.07495117 .28599549-.08395386 .2519989-.18309021 .1459961-.18309021 .1269989-.18309021 .09399414-.18206787 .06599426-.17297364 .09599304-.16394043 .10699463-.13793946 .10699463-.12094116 .10699463-.10494995 .09599304-.0859375 .068984989-.0859375 .04699707-.0859375 .01499939-.10394287 .01499939-.14395142 .01499939-.18508911 .051986696-.20507813 .147995-.20507813 .272995-.20507813 .34498597-.12693787 .3600006-.06695557L.47099305 .3773346M.34098817 .12809754C.33499146 .10206604 .31199647 .077041629 .2899933 .058029176 .2689972 .040008546 .23799134 .021987915 .20899964 .021987915 .15899658 .021987915 .14399719 .074035648 .14399719 .11407471 .14399719 .16212464 .17298889 .28024293 .19999695 .33128358 .22698975 .38034059 .269989 .42037965 .31199647 .42037965 .37799073 .42037965 .3919983 .33929444 .3919983 .33428956 .3919983 .32928468 .3899994 .3232727 .3889923 .3192749L.34098817 .12809754Z"/>
<path id="font_1_3" d="M.2869873 .68333438C.2869873 .6843262 .2869873 .69433596 .27398683 .69433596 .25099183 .69433596 .17799378 .6863251 .1519928 .6843262 .14399719 .68333438 .1329956 .6823273 .1329956 .6643219 .1329956 .6523285 .14199829 .6523285 .15699768 .6523285 .20498657 .6523285 .20698548 .6453247 .20698548 .6353302L.20399475 .6153412 .05899048 .039260866C.054992677 .025253296 .054992677 .023254395 .054992677 .01725769 .054992677-.0057525637 .07499695-.0107421879 .083999637-.0107421879 .099990848-.0107421879 .115997318 .0012512207 .12098694 .015258789L.13999939 .091278079 .1619873 .18130493C.16799927 .2033081 .17399597 .22531128 .1789856 .24832154 .18099976 .25431825 .18899536 .28733827 .18998719 .29333497 .19299317 .30233766 .22399903 .35835267 .2579956 .38536073 .27999879 .4013672 .31098939 .42037965 .35398866 .42037965 .39698792 .42037965 .4079895 .3863678 .4079895 .35035707 .4079895 .29634095 .36999513 .18730164 .34599305 .12628174 .33799745 .103271488 .33299256 .091278079 .33299256 .0712738 .33299256 .024261475 .36799623-.0107421879 .4149933-.0107421879 .5089874-.0107421879 .54599 .13528443 .54599 .14329529 .54599 .1532898 .5369873 .1532898 .5339966 .1532898 .5239868 .1532898 .5239868 .15029907 .5189972 .13528443 .5039978 .08227539 .47200013 .011245728 .4169922 .011245728 .3999939 .011245728 .3929901 .021255494 .3929901 .044265748 .3929901 .0692749 .4019928 .09327698 .41099549 .11528015 .4269867 .15829468 .47200013 .2773285 .47200013 .3353424 .47200013 .4003601 .43199159 .4423828 .35699464 .4423828 .2939911 .4423828 .24598694 .41137696 .20899964 .36535646L.2869873 .68333438Z"/>
</defs>
<path transform="matrix(1.00002,0,0,-1.00003,143.0295,114.809)" stroke-width=".79701" stroke-linecap="butt" stroke-miterlimit="10" stroke-linejoin="miter" fill="none" stroke="#000000" d="M-141.02667 0H141.02667"/>
<path transform="matrix(-1.00002,-0,0,1.00003,2,114.809)" stroke-width=".6376" stroke-linecap="round" stroke-linejoin="round" fill="none" stroke="#000000" d="M-1.55415 2.0722C-1.42464 1.29512 0 .1295 .38852 0 0-.1295-1.42464-1.29512-1.55415-2.0722"/>
<path transform="matrix(1.00002,0,0,-1.00003,284.059,114.809)" stroke-width=".6376" stroke-linecap="round" stroke-linejoin="round" fill="none" stroke="#000000" d="M-1.55415 2.0722C-1.42464 1.29512 0 .1295 .38852 0 0-.1295-1.42464-1.29512-1.55415-2.0722"/>
<path transform="matrix(1.00002,0,0,-1.00003,143.0295,114.809)" stroke-width=".79701" stroke-linecap="butt" stroke-miterlimit="10" stroke-linejoin="miter" fill="none" stroke="#000000" d="M0-112.67987V112.67987"/>
<path transform="matrix(0,1.00003,1.00002,0,143.0295,227.49225)" stroke-width=".6376" stroke-linecap="round" stroke-linejoin="round" fill="none" stroke="#000000" d="M-1.55415 2.0722C-1.42464 1.29512 0 .1295 .38852 0 0-.1295-1.42464-1.29512-1.55415-2.0722"/>
<path transform="matrix(0,-1.00003,-1.00002,-0,143.0295,2.12574)" stroke-width=".6376" stroke-linecap="round" stroke-linejoin="round" fill="none" stroke="#000000" d="M-1.55415 2.0722C-1.42464 1.29512 0 .1295 .38852 0 0-.1295-1.42464-1.29512-1.55415-2.0722"/>
<path transform="matrix(1.00002,0,0,-1.00003,143.0295,114.809)" stroke-width=".3985" stroke-linecap="butt" stroke-miterlimit="10" stroke-linejoin="miter" fill="none" stroke="#000000" d="M-8.50412 107.71794"/>
<use data-text="y" xlink:href="#font_1_5" transform="matrix(9.962799,0,0,-9.962899,131.90427,8.263794)"/>
<path transform="matrix(1.00002,0,0,-1.00003,143.0295,114.809)" stroke-width=".3985" stroke-linecap="butt" stroke-miterlimit="10" stroke-linejoin="miter" fill="none" stroke="#000000" d="M136.06476 8.50412"/>
<use data-text="x" xlink:href="#font_1_4" transform="matrix(9.962799,0,0,-9.962899,276.25019,108.44981)"/>
<path transform="matrix(1.00002,0,0,-1.00003,143.0295,114.809)" stroke-width=".79701" stroke-linecap="butt" stroke-miterlimit="10" stroke-linejoin="miter" fill="none" stroke="#0000ff" d="M5.0592 112.84784C8.92342 102.15071 8.92342 102.15071 10.49985 98.00531 12.07628 93.85991 14.60437 87.46544 16.1808 83.63596 17.75723 79.80647 20.28532 73.91861 21.86176 70.40504 23.43819 66.8915 25.96628 61.51018 27.54271 58.31259 29.11914 55.115 31.64723 50.24068 33.22366 47.35901 34.8001 44.47733 37.32819 40.10918 38.90462 37.54343 40.48105 34.97766 43.00914 31.1165 44.58557 28.86671 46.162 26.61693 48.6901 23.2623 50.26653 21.32843 51.84296 19.39456 54.37105 16.54655 55.94748 14.92859 57.52391 13.31064 60.052 10.9692 61.62843 9.6672 63.20486 8.36522 65.73296 6.5307 67.30939 5.5447 68.88582 4.55867 71.41391 3.23077 72.99034 2.56061 74.56677 1.89046 77.09486 1.06879 78.6713 .71454 80.24773 .36028 82.77582 .04561 84.35225 .00734 85.92868-.03093 88.45677 .1609 90.0332 .43858 91.60963 .71626 94.13773 1.4151 95.71416 2.0087 97.29059 2.60228 99.81868 3.80731 101.39511 4.71681 102.97154 5.62633 105.49963 7.33832 107.07607 8.5638 108.6525 9.78928 111.18059 12.00786 112.75702 13.54924 114.33345 15.09064 116.86154 17.81581 118.43797 19.67311 120.0144 21.53041 122.5425 24.7622 124.11893 26.93542 125.69536 29.10863 128.22345 32.84698 129.79988 35.33617 131.37631 37.82536 133.9044 42.07071 135.48084 44.87581 137.05727 47.68091 141.16179 55.55344 140.8348 54.92624"/>
<path transform="matrix(-.3397468,-.94051828,-.94050887,.3397502,148.08882,1.9577942)" stroke-width=".6376" stroke-linecap="round" stroke-linejoin="round" fill="none" stroke="#0000ff" d="M-1.55415 2.0722C-1.42464 1.29512 0 .1295 .38852 0 0-.1295-1.42464-1.29512-1.55415-2.0722"/>
<path transform="matrix(.46228928,-.88669666,-.88668778,-.4622939,283.86714,59.881128)" stroke-width=".6376" stroke-linecap="round" stroke-linejoin="round" fill="none" stroke="#0000ff" d="M-1.55415 2.0722C-1.42464 1.29512 0 .1295 .38852 0 0-.1295-1.42464-1.29512-1.55415-2.0722"/>
<path transform="matrix(1.00002,0,0,-1.00003,143.0295,114.809)" stroke-width=".79701" stroke-linecap="butt" stroke-miterlimit="10" stroke-linejoin="miter" fill="none" stroke="#ff0000" d="M-97.61725-112.75963C-93.615-97.4736-93.615-97.4736-92.00903-91.70279-90.40308-85.93199-87.82764-77.09811-86.22168-71.8519-84.6157-66.60568-82.04028-58.6132-80.43431-53.89163-78.82835-49.17004-76.25293-42.01898-74.64697-37.82196-73.041-33.62495-70.46558-27.31493-68.8596-23.6425-67.25363-19.9701-64.6782-14.50146-63.07224-11.35368-61.46628-8.2059-58.89084-3.5786-57.28488-.95546-55.67891 1.66765-53.1035 5.45354-51.49753 7.5521-49.89156 9.65065-47.31613 12.59564-45.71017 14.1695-44.1042 15.74336-41.52878 17.84615-39.9228 18.89542-38.31683 19.94469-35.74142 21.20724-34.13545 21.732-32.5295 22.25676-29.95406 22.67741-28.3481 22.67752-26.74213 22.67761-24.1667 22.25731-22.56073 21.73286-20.95476 21.2084-18.37933 19.94666-16.77338 18.89757-15.1674 17.84848-12.592 15.74539-10.98602 14.17166-9.38005 12.59792-6.80463 9.65338-5.19865 7.55513-3.5927 5.45688-1.01727 1.67169 .58867-.95114 2.19464-3.57397 4.77005-8.201 6.37602-11.34848 7.982-14.49596 10.55742-19.96391 12.16339-23.63603 13.76935-27.30814 16.34477-33.61792 17.95074-37.81462 19.55672-42.01132 22.13214-49.16158 23.73811-53.88298 25.34407-58.60439 27.9195-66.59715 29.52545-71.84325 31.13142-77.08934 33.70685-85.92271 35.31282-91.69328 36.9188-97.46384 41.10019-113.4335 40.92104-112.74925"/>
<path transform="matrix(-.25327508,.9673791,.9673694,.2532776,45.410295,227.57199)" stroke-width=".6376" stroke-linecap="round" stroke-linejoin="round" fill="none" stroke="#ff0000" d="M-1.55415 2.0722C-1.42464 1.29512 0 .1295 .38852 0 0-.1295-1.42464-1.29512-1.55415-2.0722"/>
<path transform="matrix(.25327508,.9673791,.9673694,-.2532776,183.95136,227.56162)" stroke-width=".6376" stroke-linecap="round" stroke-linejoin="round" fill="none" stroke="#ff0000" d="M-1.55415 2.0722C-1.42464 1.29512 0 .1295 .38852 0 0-.1295-1.42464-1.29512-1.55415-2.0722"/>
<path transform="matrix(1.00002,0,0,-1.00003,143.0295,114.809)" stroke-width=".79701" stroke-linecap="butt" stroke-miterlimit="10" stroke-linejoin="miter" fill="none" stroke="#ff8000" d="M-96.55283 112.43378C-94.3046 103.15532-94.3046 103.15532-93.37715 99.55466-92.4497 95.95401-90.96237 90.44284-90.03493 87.17023-89.10748 83.89763-87.62015 78.9125-86.6927 75.96793-85.76527 73.02335-84.27794 68.56422-83.3505 65.94775-82.42305 63.33128-80.9357 59.39857-80.00827 57.11014-79.08083 54.82169-77.59349 51.41455-76.66605 49.45422-75.7386 47.49388-74.25127 44.6136-73.32384 42.9813-72.3964 41.34898-70.90904 38.99394-69.9816 37.68962-69.05415 36.38528-67.56683 34.55669-66.63939 33.5805-65.71194 32.60432-64.22461 31.30208-63.29716 30.65395-62.36972 30.00581-60.88239 29.2292-59.95494 28.90909-59.0275 28.58899-57.54016 28.33888-56.61272 28.3468-55.68529 28.35472-54.19794 28.63025-53.2705 28.96619-52.34305 29.30214-50.85571 30.10405-49.92827 30.76814-49.00084 31.43224-47.5135 32.76057-46.58606 33.75266-45.65862 34.74474-44.17126 36.5983-43.24384 37.91843-42.31639 39.23856-40.82906 41.61899-39.90161 43.2672-38.97417 44.9154-37.48685 47.8214-36.5594 49.79764-35.63196 51.77388-34.1446 55.20633-33.21716 57.51067-32.28972 59.81502-30.8024 63.77344-29.87495 66.4058-28.94751 69.03818-27.46017 73.52266-26.53273 76.48308-25.60529 79.4435-24.11795 84.45404-23.1905 87.74248-22.26306 91.03093-20.77573 96.56752-19.84828 100.184-18.92085 103.8005-16.50607 113.80766-16.67197 113.12007"/>
<path transform="matrix(-.2354647,-.9718592,-.9718495,.23546708,46.47473,2.3718415)" stroke-width=".6376" stroke-linecap="round" stroke-linejoin="round" fill="none" stroke="#ff8000" d="M-1.55415 2.0722C-1.42464 1.29512 0 .1295 .38852 0 0-.1295-1.42464-1.29512-1.55415-2.0722"/>
<path transform="matrix(.2345447,-.97208926,-.9720795,-.23454705,126.35719,1.6855393)" stroke-width=".6376" stroke-linecap="round" stroke-linejoin="round" fill="none" stroke="#ff8000" d="M-1.55415 2.0722C-1.42464 1.29512 0 .1295 .38852 0 0-.1295-1.42464-1.29512-1.55415-2.0722"/>
<use data-text="f" xlink:href="#font_1_1" transform="matrix(6.2697889,7.7426669,7.742589,-6.2698519,191.68659,80.492389)" fill="#0000ff"/>
<use data-text="(" xlink:href="#font_2_1" transform="matrix(6.2697889,7.7426669,7.742589,-6.2698519,195.43109,85.11656)" fill="#0000ff"/>
<use data-text="x" xlink:href="#font_1_4" transform="matrix(6.2697889,7.7426669,7.742589,-6.2698519,197.86978,88.1281)" fill="#0000ff"/>
<use data-text=")" xlink:href="#font_2_2" transform="matrix(6.2697889,7.7426669,7.742589,-6.2698519,201.45319,92.55333)" fill="#0000ff"/>
<use data-text="g" xlink:href="#font_1_2" transform="matrix(5.1313397,-8.539798,-8.539713,-5.1313917,78.02322,152.39119)" fill="#ff0000"/>
<use data-text="(" xlink:href="#font_2_1" transform="matrix(5.1313397,-8.539798,-8.539713,-5.1313917,80.655178,148.01097)" fill="#ff0000"/>
<use data-text="x" xlink:href="#font_1_4" transform="matrix(5.1313397,-8.539798,-8.539713,-5.1313917,82.650508,144.69023)" fill="#ff0000"/>
<use data-text=")" xlink:href="#font_2_2" transform="matrix(5.1313397,-8.539798,-8.539713,-5.1313917,85.58326,139.80942)" fill="#ff0000"/>
<use data-text="h" xlink:href="#font_1_3" transform="matrix(2.4101008,-9.667001,-9.666904,-2.410125,111.94475,39.675569)" fill="#ff8000"/>
<use data-text="(" xlink:href="#font_2_1" transform="matrix(2.4101008,-9.667001,-9.666904,-2.410125,113.33333,34.105867)" fill="#ff8000"/>
<use data-text="x" xlink:href="#font_1_4" transform="matrix(2.4101008,-9.667001,-9.666904,-2.410125,114.27075,30.34584)" fill="#ff8000"/>
<use data-text=")" xlink:href="#font_2_2" transform="matrix(2.4101008,-9.667001,-9.666904,-2.410125,115.64821,24.820786)" fill="#ff8000"/>
<path transform="matrix(1.00002,0,0,-1.00003,143.0295,114.809)" d="M2.09218 0C2.09218 1.15549 1.15549 2.09218 0 2.09218-1.15549 2.09218-2.09218 1.15549-2.09218 0-2.09218-1.15549-1.15549-2.09218 0-2.09218 1.15549-2.09218 2.09218-1.15549 2.09218 0ZM0 0" fill="#ff0000"/>
<path transform="matrix(1.00002,0,0,-1.00003,143.0295,114.809)" stroke-width=".3985" stroke-linecap="butt" stroke-miterlimit="10" stroke-linejoin="miter" fill="none" stroke="#ff0000" d="M2.09218 0C2.09218 1.15549 1.15549 2.09218 0 2.09218-1.15549 2.09218-2.09218 1.15549-2.09218 0-2.09218-1.15549-1.15549-2.09218 0-2.09218 1.15549-2.09218 2.09218-1.15549 2.09218 0ZM0 0"/>
<path transform="matrix(1.00002,0,0,-1.00003,143.0295,114.809)" d="M-54.60143 0C-54.60143 1.15549-55.53813 2.09218-56.69362 2.09218-57.8491 2.09218-58.7858 1.15549-58.7858 0-58.7858-1.15549-57.8491-2.09218-56.69362-2.09218-55.53813-2.09218-54.60143-1.15549-54.60143 0ZM-56.69362 0" fill="#ff0000"/>
<path transform="matrix(1.00002,0,0,-1.00003,143.0295,114.809)" stroke-width=".3985" stroke-linecap="butt" stroke-miterlimit="10" stroke-linejoin="miter" fill="none" stroke="#ff0000" d="M-54.60143 0C-54.60143 1.15549-55.53813 2.09218-56.69362 2.09218-57.8491 2.09218-58.7858 1.15549-58.7858 0-58.7858-1.15549-57.8491-2.09218-56.69362-2.09218-55.53813-2.09218-54.60143-1.15549-54.60143 0ZM-56.69362 0"/>
<path transform="matrix(1.00002,0,0,-1.00003,143.0295,114.809)" d="M87.13261 0C87.13261 1.15549 86.1959 2.09218 85.04042 2.09218 83.88493 2.09218 82.94823 1.15549 82.94823 0 82.94823-1.15549 83.88493-2.09218 85.04042-2.09218 86.1959-2.09218 87.13261-1.15549 87.13261 0ZM85.04042 0" fill="#0000ff"/>
<path transform="matrix(1.00002,0,0,-1.00003,143.0295,114.809)" stroke-width=".3985" stroke-linecap="butt" stroke-miterlimit="10" stroke-linejoin="miter" fill="none" stroke="#0000ff" d="M87.13261 0C87.13261 1.15549 86.1959 2.09218 85.04042 2.09218 83.88493 2.09218 82.94823 1.15549 82.94823 0 82.94823-1.15549 83.88493-2.09218 85.04042-2.09218 86.1959-2.09218 87.13261-1.15549 87.13261 0ZM85.04042 0"/>
</svg>
